SplineFontDB: 3.2
FontName: Untitled1
FullName: Untitled1
FamilyName: Untitled1
Weight: Regular
Copyright: Copyright (c) 2020, Eric Scholz
UComments: "2020-12-2: Created with FontForge (http://fontforge.org)"
Version: 001.000
ItalicAngle: 0
UnderlinePosition: -100
UnderlineWidth: 50
Ascent: 750
Descent: 250
InvalidEm: 0
LayerCount: 2
Layer: 0 0 "Back" 1
Layer: 1 0 "Fore" 0
XUID: [1021 981 1692638275 468]
StyleMap: 0x0000
FSType: 0
OS2Version: 0
OS2_WeightWidthSlopeOnly: 0
OS2_UseTypoMetrics: 1
CreationTime: 1606962887
ModificationTime: 1607231325
OS2TypoAscent: 0
OS2TypoAOffset: 1
OS2TypoDescent: 0
OS2TypoDOffset: 1
OS2TypoLinegap: 90
OS2WinAscent: 0
OS2WinAOffset: 1
OS2WinDescent: 0
OS2WinDOffset: 1
HheadAscent: 0
HheadAOffset: 1
HheadDescent: 0
HheadDOffset: 1
OS2Vendor: 'PfEd'
MarkAttachClasses: 1
DEI: 91125
Encoding: ISO8859-1
UnicodeInterp: none
NameList: AGL For New Fonts
DisplaySize: -48
AntiAlias: 1
FitToEm: 0
WinInfo: 0 39 13
BeginPrivate: 0
EndPrivate
Grid
700 -250 m 25
 700 750 l 1049
350 500 m 25
 700 125 l 25
 350 -250 l 25
 0 125 l 1049
0 125 m 25
 350 500 l 25
 350 -250 l 1049
0 125 m 17
 700 125 l 1
 700 125 l 1033
1000 750 m 25
 1000 -252 l 1049
0 500 m 25
 700 -250 l 1049
700 500 m 1
 0 -250 l 1025
0 500 m 1
 1000 500 l 1025
  Named: "x-height"
EndSplineSet
AnchorClass2: "MiddleBottom""" 
BeginChars: 256 26

StartChar: A
Encoding: 65 65 0
Width: 700
VWidth: 998
Flags: HW
LayerCount: 2
Fore
SplineSet
374.995097764 -210 m 0
 374.995097764 -216.39969202 372.555955019 -222.79938404 367.67766953 -227.67766953 c 0
 362.79938404 -232.555955019 356.39969202 -234.995097764 350 -234.995097764 c 0
 338.925072161 -234.995097764 329.119465881 -227.078573124 326.128700479 -217.432371795 c 2
 170.795692666 283.567628205 l 2
 170.046493838 285.984040648 169.671894424 288.492020324 169.671894424 291 c 0
 169.671894424 297.39969202 172.111037169 303.79938404 176.989322658 308.67766953 c 0
 181.867608147 313.555955019 188.267300167 315.995097764 194.666992188 315.995097764 c 0
 197.504783273 315.995097764 200.342574358 315.515496953 203.047714814 314.556295332 c 2
 668.380722626 149.556295332 l 2
 677.535299539 146.310221735 684.995097764 136.711411347 684.995097764 126 c 0
 684.995097764 119.60030798 682.555955019 113.20061596 677.67766953 108.32233047 c 0
 672.79938404 103.444044981 666.39969202 101.004902236 660 101.004902236 c 0
 657.162208915 101.004902236 654.32441783 101.484503047 651.619277374 102.443704668 c 2
 233.316601806 250.767464878 l 1
 373.871299521 -202.567628205 l 2
 374.620498349 -204.984040648 374.995097764 -207.492020324 374.995097764 -210 c 0
EndSplineSet
EndChar

StartChar: B
Encoding: 66 66 1
Width: 1000
VWidth: 998
Flags: HW
LayerCount: 2
Back
SplineSet
555 1209 m 1053
EndSplineSet
Fore
SplineSet
-453 -1014 m 1049
98.5400584865 215 m 0
 98.5400584865 221.39969202 100.979201231 227.79938404 105.85748672 232.67766953 c 0
 110.73577221 237.555955019 117.13546423 239.995097764 123.53515625 239.995097764 c 0
 125.375677724 239.995097764 127.216199199 239.793353662 129.020530495 239.389865459 c 2
 531.485374245 149.389865459 l 2
 542.11286917 147.013323611 550.995097764 136.802873608 550.995097764 125 c 0
 550.995097764 122.305890774 550.562833367 119.611781548 549.698304573 117.031176971 c 2
 469.965882698 -120.968823029 l 2
 466.827757767 -130.336075599 457.141031418 -137.995097764 446.267578125 -137.995097764 c 0
 439.867886105 -137.995097764 433.468194085 -135.555955019 428.589908595 -130.67766953 c 0
 423.711623106 -125.79938404 421.272480361 -119.39969202 421.272480361 -113 c 0
 421.272480361 -110.305890774 421.704744758 -107.611781548 422.569273552 -105.031176971 c 2
 493.486067541 106.654315237 l 1
 118.049782005 190.610134541 l 2
 107.42228708 192.986676389 98.5400584865 203.197126392 98.5400584865 215 c 0
EndSplineSet
EndChar

StartChar: C
Encoding: 67 67 2
Width: 1000
Flags: H
LayerCount: 2
Fore
SplineSet
351.400390625 480.995097764 m 0
 357.800082645 480.995097764 364.199774665 478.555955019 369.078060155 473.67766953 c 0
 373.956345644 468.79938404 376.395488389 462.39969202 376.395488389 456 c 0
 376.395488389 453.496878505 376.022338834 450.99375701 375.276039725 448.581671656 c 2
 237.452746575 3.12817617095 l 1
 649.655709758 148.569181879 l 2
 652.349891499 149.519792469 655.17494575 149.995097764 658 149.995097764 c 0
 664.39969202 149.995097764 670.79938404 147.555955019 675.67766953 142.67766953 c 0
 680.555955019 137.79938404 682.995097764 131.39969202 682.995097764 125 c 0
 682.995097764 114.278780068 675.518521149 104.667838446 666.344290242 101.430818121 c 2
 207.210501179 -60.5691818787 l 2
 204.516319438 -61.5197924686 201.691265188 -61.9950977635 198.866210938 -61.9950977635 c 0
 192.466518917 -61.9950977635 186.066826897 -59.5559550189 181.188541408 -54.6776695297 c 0
 176.310255919 -49.7993840404 173.871113174 -43.3996920202 173.871113174 -37 c 0
 173.871113174 -34.496878505 174.244262728 -31.99375701 174.990561838 -29.5816716564 c 2
 327.524741525 463.418328344 l 2
 330.511099924 473.070425294 340.31549453 480.995097764 351.400390625 480.995097764 c 0
EndSplineSet
EndChar

StartChar: D
Encoding: 68 68 3
Width: 1000
Flags: H
LayerCount: 2
Fore
SplineSet
31 100.004902236 m 0
 24.6003079798 100.004902236 18.2006159596 102.444044981 13.3223304703 107.32233047 c 0
 8.4440449811 112.20061596 6.00490223649 118.60030798 6.00490223649 125 c 0
 6.00490223649 131.102504732 8.22276831104 137.205009463 12.6585004601 141.988369524 c 2
 331.65850046 485.988369524 l 2
 336.439999108 491.14459377 343.266416727 493.995097764 350 493.995097764 c 0
 356.39969202 493.995097764 362.79938404 491.555955019 367.67766953 486.67766953 c 0
 372.555955019 481.79938404 374.995097764 475.39969202 374.995097764 469 c 2
 374.995097764 -214 l 2
 374.995097764 -220.39969202 372.555955019 -226.79938404 367.67766953 -231.67766953 c 0
 362.79938404 -236.555955019 356.39969202 -238.995097764 350 -238.995097764 c 0
 343.60030798 -238.995097764 337.20061596 -236.555955019 332.32233047 -231.67766953 c 0
 327.444044981 -226.79938404 325.004902236 -220.39969202 325.004902236 -214 c 2
 325.004902236 405.278748118 l 1
 49.3414995399 108.011630476 l 2
 44.5600008925 102.85540623 37.7335832729 100.004902236 31 100.004902236 c 0
EndSplineSet
EndChar

StartChar: E
Encoding: 69 69 4
Width: 1000
Flags: HW
LayerCount: 2
Fore
SplineSet
350 473.995097764 m 0
 356.39969202 473.995097764 362.79938404 471.555955019 367.67766953 466.67766953 c 0
 372.555955019 461.79938404 374.995097764 455.39969202 374.995097764 449 c 0
 374.995097764 442.81266791 372.715144624 436.625335819 368.155238345 431.812926586 c 2
 96.6921517671 145.31768212 l 1
 326.231208573 124.896057849 l 2
 337.958430895 123.852710667 347.860415054 113.951210274 348.897385545 102.216234593 c 2
 370.289434797 -139.868935569 l 1
 632.691148696 142.023509534 l 2
 637.477682432 147.165578456 644.283446099 149.995097764 651 149.995097764 c 0
 657.39969202 149.995097764 663.79938404 147.555955019 668.67766953 142.67766953 c 0
 673.555955019 137.79938404 675.995097764 131.39969202 675.995097764 125 c 0
 675.995097764 118.882541539 673.766348944 112.765083079 669.308851304 107.976490466 c 2
 368.641859116 -215.023509534 l 2
 363.855325381 -220.165578456 357.049561713 -222.995097764 350.333007812 -222.995097764 c 0
 337.475133772 -222.995097764 326.522650215 -212.517690266 325.435622267 -200.216234593 c 2
 300.943008541 76.9567698098 l 1
 40.7687914269 100.103942151 l 2
 28.4788398023 101.197354217 18.0049022365 112.139162539 18.0049022365 125 c 0
 18.0049022365 131.18733209 20.284855376 137.374664181 24.8447616552 142.187073414 c 2
 331.844761655 466.187073414 l 2
 336.654854615 471.263523313 343.362514223 473.995097764 350 473.995097764 c 0
EndSplineSet
EndChar

StartChar: F
Encoding: 70 70 5
Width: 1000
Flags: H
LayerCount: 2
Fore
SplineSet
351 483.995097764 m 0
 357.39969202 483.995097764 363.79938404 481.555955019 368.67766953 476.67766953 c 0
 373.555955019 471.79938404 375.995097764 465.39969202 375.995097764 459 c 0
 375.995097764 452.906734221 373.78394213 446.813468442 369.361630862 442.033365 c 2
 95.1130875844 145.596428254 l 1
 328.120220124 125.905684659 l 2
 340.418903377 124.866359313 350.889433103 113.994311072 350.994251708 101.206441233 c 2
 351.817680514 0.748126943596 l 1
 515.109344011 -22.2507475681 l 2
 526.765078997 -23.8924038569 536.594707139 -34.5511401211 536.594707139 -47 c 0
 536.594707139 -53.3996920202 534.155564394 -59.7993840404 529.277278905 -64.6776695297 c 0
 524.398993415 -69.5559550189 517.999301395 -71.9950977635 511.599609375 -71.9950977635 c 0
 510.426574777 -71.9950977635 509.253540179 -71.9131493196 508.089874739 -71.7492524319 c 2
 323.490265364 -45.7492524319 l 2
 311.882790216 -44.1143933178 302.106952142 -33.5533109925 302.005748292 -21.2064412326 c 2
 301.192486057 78.0115514387 l 1
 39.8797798757 100.094315341 l 2
 27.5321810488 101.137774397 17.0049022365 112.107357279 17.0049022365 125 c 0
 17.0049022365 131.093265779 19.2160578704 137.186531558 23.6383691381 141.966635 c 2
 332.638369138 475.966635 l 2
 337.416760548 481.131627656 344.255874884 483.995097764 351 483.995097764 c 0
EndSplineSet
EndChar

StartChar: G
Encoding: 71 71 6
Width: 1000
Flags: H
LayerCount: 2
Fore
SplineSet
350 490.995097764 m 0
 356.39969202 490.995097764 362.79938404 488.555955019 367.67766953 483.67766953 c 0
 372.555955019 478.79938404 374.995097764 472.39969202 374.995097764 466 c 0
 374.995097764 459.850718025 372.743100366 453.70143605 368.239105572 448.901866598 c 2
 64.4273695307 125.152485379 l 1
 349.407550327 -173.186141392 l 1
 614.879549406 123.257590914 l 1
 491.130626131 236.548858701 l 2
 485.92625668 241.313422283 483.004902236 248.20861029 483.004902236 255 c 0
 483.004902236 261.39969202 485.444044981 267.79938404 490.32233047 272.67766953 c 0
 495.20061596 277.555955019 501.60030798 279.995097764 508 279.995097764 c 0
 514.052015606 279.995097764 520.104031213 277.813778942 524.869373869 273.451141299 c 2
 666.869373869 143.451141299 l 2
 672.07374332 138.686577717 674.995097764 131.79138971 674.995097764 125 c 0
 674.995097764 119.034585069 672.875758998 113.069170138 668.637081468 108.33598023 c 2
 368.637081468 -226.66401977 l 2
 363.901216533 -231.952402281 356.891706406 -234.995097764 350 -234.995097764 c 0
 343.397392544 -234.995097764 336.737280346 -232.309228218 331.915347771 -227.261267554 c 2
 11.9153477711 107.738732446 l 2
 7.30838408137 112.561647559 5.00490223649 118.780823779 5.00490223649 125 c 0
 5.00490223649 131.149281975 7.25689963374 137.29856395 11.7608944282 142.098133402 c 2
 331.760894428 483.098133402 l 2
 336.558158793 488.210218241 343.319555661 490.995097764 350 490.995097764 c 0
EndSplineSet
EndChar

StartChar: H
Encoding: 72 72 7
Width: 1000
Flags: H
LayerCount: 2
Fore
SplineSet
13.0049022365 125 m 0
 13.0049022365 131.39969202 15.4440449811 137.79938404 20.3223304703 142.67766953 c 0
 25.2006159596 147.555955019 31.6003079798 149.995097764 38 149.995097764 c 0
 44.7159969154 149.995097764 51.5148400732 147.170926695 56.3043643726 142.028328489 c 2
 325.004902236 -146.480261846 l 1
 325.004902236 465 l 2
 325.004902236 471.39969202 327.444044981 477.79938404 332.32233047 482.67766953 c 0
 337.20061596 487.555955019 343.60030798 489.995097764 350 489.995097764 c 0
 356.754077701 489.995097764 363.597840813 487.124893232 368.376630838 481.950407218 c 2
 682.376630838 141.950407218 l 2
 686.788942122 137.172745318 688.995097764 131.086372659 688.995097764 125 c 0
 688.995097764 118.60030798 686.555955019 112.20061596 681.67766953 107.32233047 c 0
 676.79938404 102.444044981 670.39969202 100.004902236 664 100.004902236 c 0
 657.245922299 100.004902236 650.402159187 102.875106768 645.623369162 108.049592782 c 2
 374.995097764 401.086574552 l 1
 374.995097764 -210 l 2
 374.995097764 -216.39969202 372.555955019 -222.79938404 367.67766953 -227.67766953 c 0
 362.79938404 -232.555955019 356.39969202 -234.995097764 350 -234.995097764 c 0
 343.284003085 -234.995097764 336.485159927 -232.170926695 331.695635627 -227.028328489 c 2
 19.6956356274 107.971671511 l 2
 15.2351467001 112.760978532 13.0049022365 118.880489266 13.0049022365 125 c 0
EndSplineSet
EndChar

StartChar: I
Encoding: 73 73 8
Width: 1000
Flags: H
LayerCount: 2
Fore
SplineSet
170.071568903 291 m 0
 170.071568903 297.39969202 172.510711648 303.79938404 177.388997137 308.67766953 c 0
 182.267282626 313.555955019 188.666974646 315.995097764 195.066666667 315.995097764 c 0
 201.77304518 315.995097764 208.56040398 313.182592788 213.352655039 308.048038083 c 2
 519.485988372 -19.9519619173 l 2
 523.958727966 -24.744182911 526.195097764 -30.8720914555 526.195097764 -37 c 0
 526.195097764 -43.3996920202 523.755955019 -49.7993840404 518.87766953 -54.6776695297 c 0
 513.99938404 -59.5559550189 507.59969202 -61.9950977635 501.2 -61.9950977635 c 0
 494.493621487 -61.9950977635 487.706262686 -59.1825927884 482.914011628 -54.0480380827 c 2
 176.780678294 273.951961917 l 2
 172.3079387 278.744182911 170.071568903 284.872091455 170.071568903 291 c 0
EndSplineSet
EndChar

StartChar: J
Encoding: 74 74 9
Width: 1000
Flags: H
LayerCount: 2
Fore
SplineSet
38 100.004902236 m 0
 31.6003079798 100.004902236 25.2006159596 102.444044981 20.3223304703 107.32233047 c 0
 15.4440449811 112.20061596 13.0049022365 118.60030798 13.0049022365 125 c 0
 13.0049022365 131.226720333 15.3139759042 137.453440666 19.9321232395 142.278812561 c 2
 331.93212324 468.278812561 l 2
 336.755440111 473.318560318 343.406771169 475.995097764 350 475.995097764 c 0
 356.695544627 475.995097764 363.469901933 473.195750634 368.265231048 468.070251318 c 2
 673.265231048 142.070251318 l 2
 677.751808858 137.274761593 679.995097764 131.137380797 679.995097764 125 c 0
 679.995097764 114.278134916 672.517734596 104.666846272 663.342663782 101.430244307 c 2
 206.942273157 -59.5697556928 l 2
 204.248580909 -60.5199837399 201.424095142 -60.9950977635 198.599609375 -60.9950977635 c 0
 192.199917355 -60.9950977635 185.800225335 -58.5559550189 180.921939845 -53.6776695297 c 0
 176.043654356 -48.7993840404 173.604511611 -42.3996920202 173.604511611 -36 c 0
 173.604511611 -25.2781349157 181.081874779 -15.6668462721 190.256945593 -12.4302443072 c 2
 610.609711949 135.853580101 l 1
 349.793889361 414.627213425 l 1
 56.0678767605 107.721187439 l 2
 51.2445598888 102.681439682 44.5932288311 100.004902236 38 100.004902236 c 0
EndSplineSet
EndChar

StartChar: K
Encoding: 75 75 10
Width: 1000
Flags: H
LayerCount: 2
Fore
SplineSet
6.00490223649 125 m 0
 6.00490223649 131.39969202 8.4440449811 137.79938404 13.3223304703 142.67766953 c 0
 18.2006159596 147.555955019 24.6003079798 149.995097764 31 149.995097764 c 0
 37.6423705594 149.995097764 44.3519340212 147.260566765 49.1624542321 142.179454792 c 2
 180.965457622 2.96253246102 l 1
 327.174111075 464.57727481 l 2
 330.205178753 474.147060811 339.975557332 481.995097764 351 481.995097764 c 0
 357.39969202 481.995097764 363.79938404 479.555955019 368.67766953 474.67766953 c 0
 373.555955019 469.79938404 375.995097764 463.39969202 375.995097764 457 c 0
 375.995097764 454.441850723 375.605361484 451.883701446 374.825888925 449.42272519 c 2
 231.143220337 -4.21689513125 l 1
 652.455496481 148.497575966 l 2
 655.209762062 149.495923831 658.104881031 149.995097764 661 149.995097764 c 0
 667.39969202 149.995097764 673.79938404 147.555955019 678.67766953 142.67766953 c 0
 683.555955019 137.79938404 685.995097764 131.39969202 685.995097764 125 c 0
 685.995097764 114.367507342 678.64462669 104.800976143 669.544503519 101.502424034 c 2
 236.337063983 -55.5237267572 l 1
 369.162454232 -195.820545208 l 2
 373.71754992 -200.631865028 375.995097764 -206.815932514 375.995097764 -213 c 0
 375.995097764 -219.39969202 373.555955019 -225.79938404 368.67766953 -230.67766953 c 0
 363.79938404 -235.555955019 357.39969202 -237.995097764 351 -237.995097764 c 0
 344.357629441 -237.995097764 337.648065979 -235.260566765 332.837545768 -230.179454792 c 2
 12.8375457679 107.820545208 l 2
 8.28245008028 112.631865028 6.00490223649 118.815932514 6.00490223649 125 c 0
EndSplineSet
EndChar

StartChar: L
Encoding: 76 76 11
Width: 1000
Flags: H
LayerCount: 2
Fore
SplineSet
20.0049022365 125 m 0
 20.0049022365 131.39969202 22.4440449811 137.79938404 27.3223304703 142.67766953 c 0
 32.2006159596 147.555955019 38.6003079798 149.995097764 45 149.995097764 c 0
 51.639431553 149.995097764 58.3453679447 147.264158971 63.1567308245 142.185498153 c 2
 350.933027873 -161.578370953 l 1
 483.246126107 -20.8822429228 l 2
 488.046218686 -15.7780283809 494.795837306 -13.0049022365 501.466796875 -13.0049022365 c 0
 507.866488895 -13.0049022365 514.266180915 -15.4440449811 519.144466405 -20.3223304703 c 0
 524.022751894 -25.2006159596 526.461894639 -31.6003079798 526.461894639 -38 c 0
 526.461894639 -44.1576659084 524.203752307 -50.3153318167 519.687467643 -55.1177570772 c 2
 369.220670768 -215.117757077 l 2
 364.420578189 -220.221971619 357.670959569 -222.995097764 351 -222.995097764 c 0
 344.360568447 -222.995097764 337.654632055 -220.264158971 332.843269175 -215.185498153 c 2
 26.8432691755 107.814501847 l 2
 22.2843578828 112.626685989 20.0049022365 118.813342994 20.0049022365 125 c 0
EndSplineSet
EndChar

StartChar: M
Encoding: 77 77 12
Width: 1000
Flags: H
LayerCount: 2
Fore
SplineSet
350 483.995097764 m 0
 356.731528944 483.995097764 363.548799981 481.152120386 368.333933768 475.996524627 c 2
 678.333933768 141.996524627 l 2
 682.774709765 137.211946618 684.995097764 131.105973309 684.995097764 125 c 0
 684.995097764 118.60030798 682.555955019 112.20061596 677.67766953 107.32233047 c 0
 672.79938404 102.444044981 666.39969202 100.004902236 660 100.004902236 c 0
 653.268471056 100.004902236 646.451200019 102.847879614 641.666066232 108.003475373 c 2
 369.927430442 400.77994103 l 1
 347.829887863 151.774381179 l 2
 346.797505738 140.141011169 337.058107724 130.320731945 325.500262426 129.136080035 c 2
 92.9153264916 105.296672134 l 1
 368.203806388 -186.864327498 l 2
 372.731333972 -191.669348708 374.995097764 -197.834674354 374.995097764 -204 c 0
 374.995097764 -210.39969202 372.555955019 -216.79938404 367.67766953 -221.67766953 c 0
 362.79938404 -226.555955019 356.39969202 -228.995097764 350 -228.995097764 c 0
 343.336326664 -228.995097764 336.600613767 -226.234557118 331.796193612 -221.135672502 c 2
 21.7961936116 107.864327498 l 2
 17.2686660282 112.669348708 15.0049022365 118.834674354 15.0049022365 125 c 0
 15.0049022365 137.726548041 25.2808584135 148.618346818 37.4330709069 149.863919965 c 2
 299.859240942 176.761984047 l 1
 325.10344547 461.225618821 l 2
 326.194352376 473.518473728 337.137555247 483.995097764 350 483.995097764 c 0
EndSplineSet
EndChar

StartChar: N
Encoding: 78 78 13
Width: 1000
Flags: H
LayerCount: 2
Fore
SplineSet
321.004902236 458 m 0
 321.004902236 464.39969202 323.444044981 470.79938404 328.32233047 475.67766953 c 0
 333.20061596 480.555955019 339.60030798 482.995097764 346 482.995097764 c 0
 352.747239507 482.995097764 359.583001377 480.133140528 364.363711285 474.964385984 c 2
 672.363711285 141.964385984 l 2
 676.784635604 137.184620406 678.995097764 131.092310203 678.995097764 125 c 0
 678.995097764 118.60030798 676.555955019 112.20061596 671.67766953 107.32233047 c 0
 666.79938404 102.444044981 660.39969202 100.004902236 654 100.004902236 c 2
 99.4918606924 100.004902236 l 1
 364.293540262 -183.960056776 l 2
 368.761245263 -188.751082533 370.995097764 -194.875541267 370.995097764 -201 c 0
 370.995097764 -207.39969202 368.555955019 -213.79938404 363.67766953 -218.67766953 c 0
 358.79938404 -223.555955019 352.39969202 -225.995097764 346 -225.995097764 c 0
 339.289671795 -225.995097764 332.497590382 -223.177800428 327.706459738 -218.039943224 c 2
 23.7064597377 107.960056776 l 2
 19.2387547369 112.751082533 17.0049022365 118.875541267 17.0049022365 125 c 0
 17.0049022365 131.39969202 19.4440449811 137.79938404 24.3223304703 142.67766953 c 0
 29.2006159596 147.555955019 35.6003079798 149.995097764 42 149.995097764 c 2
 596.82691636 149.995097764 l 1
 327.636288715 441.035614016 l 2
 323.215364396 445.815379594 321.004902236 451.907689797 321.004902236 458 c 0
EndSplineSet
EndChar

StartChar: O
Encoding: 79 79 14
Width: 1000
Flags: HW
LayerCount: 2
Fore
SplineSet
374.995097764 468 m 2
 374.995097764 -208 l 2
 374.995097764 -214.39969202 372.555955019 -220.79938404 367.67766953 -225.67766953 c 0
 362.79938404 -230.555955019 356.39969202 -232.995097764 350 -232.995097764 c 0
 343.396139162 -232.995097764 336.734456138 -230.307692717 331.912883445 -225.25868735 c 2
 13.9128834451 107.74131265 l 2
 9.30756263936 112.56386557 7.00490223649 118.781932785 7.00490223649 125 c 0
 7.00490223649 131.101605974 9.22211507849 137.203211948 13.6565407625 141.986256003 c 2
 331.656540762 484.986256003 l 2
 336.437737008 490.143332456 343.265391919 492.995097764 350 492.995097764 c 0
 356.39969202 492.995097764 362.79938404 490.555955019 367.67766953 485.67766953 c 0
 372.555955019 480.79938404 374.995097764 474.39969202 374.995097764 468 c 2
325.004902236 -145.626918411 m 1
 325.004902236 404.268067735 l 1
 66.3264915938 125.253304054 l 1
 325.004902236 -145.626918411 l 1
EndSplineSet
EndChar

StartChar: P
Encoding: 80 80 15
Width: 1000
Flags: H
LayerCount: 2
Fore
SplineSet
0 125 m 25
 350 500 l 25
 176.4 -64 l 25
 350 -250 l 1053
EndSplineSet
EndChar

StartChar: Q
Encoding: 81 81 16
Width: 1000
Flags: H
LayerCount: 2
Fore
SplineSet
700 125 m 25
 350 500 l 25
 0 125 l 25
 350 -250 l 25
 526 -70 l 25
 694 -250 l 1053
EndSplineSet
EndChar

StartChar: R
Encoding: 82 82 17
Width: 1000
Flags: H
LayerCount: 2
Fore
SplineSet
700 -250 m 25
 -12 499 l 25
 350 500 l 25
 336 -247 l 1053
EndSplineSet
EndChar

StartChar: S
Encoding: 83 83 18
Width: 1000
Flags: H
LayerCount: 2
Fore
SplineSet
350 500 m 25
 0 125 l 25
 694 125 l 25
 350 -250 l 1053
EndSplineSet
EndChar

StartChar: T
Encoding: 84 84 19
Width: 1000
Flags: H
LayerCount: 2
Fore
SplineSet
170.8 -58 m 25
 180.133333333 307 l 25
 520.8 -67 l 1053
EndSplineSet
EndChar

StartChar: U
Encoding: 85 85 20
Width: 1000
Flags: H
LayerCount: 2
Fore
SplineSet
0 125 m 25
 350 -250 l 25
 700 125 l 25
 350 500 l 1053
EndSplineSet
EndChar

StartChar: V
Encoding: 86 86 21
Width: 1000
Flags: H
LayerCount: 2
Fore
SplineSet
0 125 m 25
 523.6 -64 l 25
 350 500 l 1053
EndSplineSet
EndChar

StartChar: W
Encoding: 87 87 22
Width: 1000
Flags: H
LayerCount: 2
Fore
SplineSet
0 125 m 25
 350 -250 l 25
 350 124 l 25
 700 125 l 25
 350 500 l 1053
EndSplineSet
EndChar

StartChar: X
Encoding: 88 88 23
Width: 1000
Flags: H
LayerCount: 2
Fore
SplineSet
350 500 m 25
 350 -250 l 1053
-6 121 m 25
 700 125 l 1049
EndSplineSet
EndChar

StartChar: Y
Encoding: 89 89 24
Width: 1000
Flags: H
LayerCount: 2
Fore
SplineSet
-6 127 m 25
 350 119 l 25
 350 500 l 25
 696.266666667 129 l 25
 522.666666667 -65 l 25
 169.866666667 -57 l 1053
EndSplineSet
EndChar

StartChar: Z
Encoding: 90 90 25
Width: 1000
Flags: H
LayerCount: 2
Fore
SplineSet
0 125 m 25
 341.6 491 l 25
 350 -250 l 25
 700 131 l 1053
EndSplineSet
EndChar
